<svg width="35" height="35" viewBox="0 0 35 35" fill="none" xmlns="http://www.w3.org/2000/svg">
<path d="M28.6198 32.0833L25.6419 29.4583L23.9634 27.8979L22.1886 26.25L22.9177 28.8152H7.21439C5.64175 28.8096 4.37098 27.531 4.37501 25.9583V7.22896C4.3726 5.65745 5.64289 4.38063 7.21439 4.375H25.7804C27.3519 4.38063 28.6222 5.65745 28.6198 7.22896V32.0833ZM22.0209 19.6992C21.4059 20.5239 20.5206 21.1062 19.5198 21.3442C19.9311 21.8692 20.4269 22.4627 20.4313 22.4685C22.1041 22.5039 23.6881 21.7171 24.6706 20.3627C24.6203 17.555 23.9385 14.7947 22.6756 12.2865C21.5639 11.414 20.2105 10.9049 18.7994 10.8281H18.7834L18.5894 11.0498C19.8498 11.3883 21.0253 11.9875 22.0398 12.8085C20.7489 12.0989 19.3323 11.6472 17.869 11.4785C16.9389 11.3752 15.9997 11.3845 15.0719 11.5062C15.0063 11.5075 14.9409 11.5144 14.8765 11.5267H14.8356C13.7482 11.6519 12.6872 11.9471 11.6915 12.4017C11.1927 12.6306 10.8865 12.7969 10.8734 12.8027C10.8602 12.8085 10.8734 12.8027 10.8734 12.7925C11.9494 11.9461 13.1909 11.3346 14.5177 10.9973L14.3719 10.831H14.3631C12.952 10.908 11.5988 11.4171 10.4869 12.2894C9.21946 14.7959 8.53734 17.5573 8.49189 20.3656C9.46217 21.729 11.0484 22.5188 12.7211 22.4715C12.7211 22.4715 13.2431 21.8356 13.65 21.3208C12.6744 21.0756 11.8147 20.4981 11.219 19.6875C11.2292 19.6948 11.3736 19.7925 11.6069 19.9208C11.6226 19.9393 11.6419 19.9542 11.6638 19.9646C11.6822 19.9774 11.7018 19.9886 11.7221 19.9981C11.7452 20.0086 11.7671 20.0213 11.7877 20.036C12.1131 20.2154 12.4508 20.3713 12.7984 20.5027C13.4591 20.7643 14.1425 20.9645 14.84 21.1006C15.4507 21.2158 16.0707 21.2743 16.6921 21.2756C17.2748 21.2756 17.8562 21.2219 18.429 21.1152C19.1188 20.9941 19.7926 20.7944 20.4371 20.5202C20.9938 20.3061 21.525 20.0307 22.0209 19.6992ZM19.0488 19.0765C18.4143 19.1318 17.8109 18.792 17.5294 18.2207C17.2478 17.6494 17.3458 16.9639 17.7761 16.4944C18.2065 16.0249 18.8809 15.8677 19.4744 16.0986C20.068 16.3295 20.459 16.901 20.459 17.5379C20.4911 18.3515 19.8607 19.0386 19.0473 19.0765H19.0488ZM13.9913 19.0765C13.1933 19.0069 12.581 18.3389 12.581 17.5379C12.581 16.737 13.1933 16.0689 13.9913 15.9994C14.3588 16.0005 14.7103 16.1504 14.9654 16.415C15.255 16.7155 15.4125 17.1193 15.4029 17.5365C15.4367 18.3515 14.8047 19.0402 13.9898 19.0765H13.9913Z" fill="black"/>
</svg>
