<svg width="35" height="35" viewBox="0 0 35 35" fill="none" xmlns="http://www.w3.org/2000/svg">
<path d="M17.5029 30.6848C13.9154 30.6848 13.4925 30.6658 12.0925 30.6046C11.0008 30.5687 9.92315 30.3467 8.90605 29.9483C7.1463 29.2635 5.7548 27.8714 5.07064 26.1114C4.68754 25.0907 4.48091 24.0121 4.4596 22.9221C4.37793 21.525 4.37793 21.0671 4.37793 17.5073C4.37793 13.9096 4.39689 13.4896 4.4596 12.0968C4.48138 11.0082 4.688 9.93123 5.07064 8.91185C5.75406 7.14949 7.14782 5.75626 8.91043 5.07351C9.92929 4.68881 11.0066 4.48164 12.0954 4.46101C13.4881 4.38226 13.9461 4.38226 17.5029 4.38226C21.1196 4.38226 21.5352 4.40122 22.9133 4.46101C24.005 4.48182 25.0852 4.68896 26.1071 5.07351C27.8692 5.75704 29.2627 7.15 29.9469 8.91185C30.3364 9.94609 30.5442 11.0399 30.5608 12.145C30.6425 13.5421 30.6425 13.9985 30.6425 17.5568C30.6425 21.1152 30.6221 21.5818 30.5608 22.9629C30.5391 24.054 30.332 25.1335 29.9483 26.1552C29.2624 27.9164 27.8689 29.3089 26.1071 29.9935C25.0866 30.3759 24.0087 30.5825 22.9192 30.6046C21.5265 30.6848 21.07 30.6848 17.5029 30.6848ZM17.4533 6.6908C13.8863 6.6908 13.5158 6.7083 12.1231 6.77101C11.2919 6.78203 10.4686 6.93543 9.68918 7.22456C8.53819 7.66498 7.62743 8.57204 7.1823 9.72122C6.89095 10.5092 6.73752 11.3414 6.72876 12.1814C6.65147 13.5946 6.65147 13.965 6.65147 17.5073C6.65147 21.0073 6.6646 21.4316 6.72876 22.836C6.74182 23.6676 6.89515 24.4909 7.1823 25.2714C7.62808 26.4199 8.53869 27.3262 9.68918 27.7666C10.4681 28.0577 11.2917 28.2112 12.1231 28.2202C13.5348 28.3018 13.9067 28.3018 17.4533 28.3018C21.0306 28.3018 21.4011 28.2843 22.7821 28.2202C23.6139 28.2101 24.4378 28.0566 25.2175 27.7666C26.3615 27.3224 27.2664 26.4181 27.7113 25.2743C28.0021 24.4858 28.1555 23.6531 28.1648 22.8127H28.1808C28.2436 21.4185 28.2436 21.0466 28.2436 17.4839C28.2436 13.9212 28.2275 13.5464 28.1648 12.1537C28.1517 11.3231 27.9984 10.5007 27.7113 9.72122C27.2674 8.57581 26.3624 7.66977 25.2175 7.22456C24.438 6.93397 23.614 6.78052 22.7821 6.77101C21.3719 6.6908 21.0029 6.6908 17.4533 6.6908ZM17.5029 24.2433C14.7758 24.2451 12.3162 22.6037 11.2713 20.0848C10.2263 17.5659 10.8018 14.6655 12.7293 12.7363C14.6568 10.8071 17.5567 10.2291 20.0765 11.2719C22.5964 12.3147 24.2398 14.7729 24.2404 17.5C24.2364 21.2203 21.2232 24.2361 17.5029 24.2433ZM17.5029 13.1221C15.0867 13.1221 13.1279 15.0808 13.1279 17.4971C13.1279 19.9133 15.0867 21.8721 17.5029 21.8721C19.9192 21.8721 21.8779 19.9133 21.8779 17.4971C21.8723 15.0831 19.9168 13.1277 17.5029 13.1221ZM24.5029 12.0823C23.6358 12.079 22.9351 11.3744 22.9367 10.5073C22.9383 9.64018 23.6417 8.93811 24.5088 8.93811C25.3759 8.93811 26.0792 9.64017 26.0808 10.5073C26.0812 10.9256 25.915 11.3269 25.6189 11.6224C25.3229 11.918 24.9213 12.0834 24.5029 12.0823Z" fill="black"/>
</svg>
